<svg width="16" height="16" viewBox="0 0 16 16" fill="none" xmlns="http://www.w3.org/2000/svg">
<path d="M7.22659 9.02667H6.22659C5.45992 9.02667 4.83992 8.38667 4.83992 7.59334C4.83992 7.32 5.06659 7.09334 5.33992 7.09334C5.61325 7.09334 5.83992 7.32 5.83992 7.59334C5.83992 7.83334 6.01325 8.02667 6.22659 8.02667H7.22659C7.37992 8.02667 7.49992 7.88667 7.49992 7.71334C7.49992 7.48 7.45992 7.46667 7.30659 7.41334L5.69992 6.85334C5.11992 6.65334 4.83325 6.24667 4.83325 5.61334C4.83325 4.89334 5.40659 4.3 6.10659 4.3H7.10659C7.87325 4.3 8.49325 4.94 8.49325 5.73334C8.49325 6.00667 8.26659 6.23334 7.99325 6.23334C7.71992 6.23334 7.49325 6.00667 7.49325 5.73334C7.49325 5.49334 7.31992 5.3 7.10659 5.3H6.10659C5.95325 5.3 5.83325 5.44 5.83325 5.61334C5.83325 5.84667 5.87325 5.86 6.02659 5.91334L7.63325 6.47334C8.21325 6.68 8.49325 7.08667 8.49325 7.71334C8.49992 8.44 7.92659 9.02667 7.22659 9.02667Z" fill="#4F5B67"/>
<path d="M6.66675 9.56C6.39341 9.56 6.16675 9.33333 6.16675 9.06V8.56667C6.16675 8.29333 6.39341 8.06667 6.66675 8.06667C6.94008 8.06667 7.16675 8.29333 7.16675 8.56667V9.06C7.16675 9.34 6.94008 9.56 6.66675 9.56Z" fill="#4F5B67"/>
<path d="M6.66675 5.29333C6.39341 5.29333 6.16675 5.06666 6.16675 4.79333V4.27333C6.16675 4 6.39341 3.77333 6.66675 3.77333C6.94008 3.77333 7.16675 4 7.16675 4.27333V4.79333C7.16675 5.06666 6.94008 5.29333 6.66675 5.29333Z" fill="#4F5B67"/>
<path d="M6.65992 12.48C3.44659 12.48 0.833252 9.86666 0.833252 6.65333C0.833252 3.43999 3.44659 0.82666 6.65992 0.82666C9.87325 0.82666 12.4866 3.43999 12.4866 6.65333C12.4866 9.86666 9.86659 12.48 6.65992 12.48ZM6.65992 1.83333C3.99992 1.83333 1.83325 3.99999 1.83325 6.65999C1.83325 9.31999 3.99992 11.48 6.65992 11.48C9.31992 11.48 11.4866 9.31333 11.4866 6.65333C11.4866 3.99333 9.31992 1.83333 6.65992 1.83333Z" fill="#4F5B67"/>
<path d="M11.3466 15.1467C10.1133 15.1467 8.95327 14.5467 8.23993 13.5333C8.07993 13.3067 8.13327 12.9933 8.35993 12.8333C8.5866 12.6733 8.89993 12.7267 9.05993 12.9533C9.5866 13.7 10.4399 14.14 11.3466 14.14C12.8933 14.14 14.1466 12.8867 14.1466 11.34C14.1466 10.44 13.7066 9.58667 12.9733 9.06001C12.7466 8.90001 12.6999 8.58667 12.8599 8.36001C13.0199 8.13334 13.3333 8.08667 13.5599 8.24667C14.5533 8.96001 15.1466 10.1133 15.1466 11.34C15.1466 13.4467 13.4466 15.1467 11.3466 15.1467Z" fill="#4F5B67"/>
</svg>
