<svg width="16" height="16" viewBox="0 0 16 16" fill="none" xmlns="http://www.w3.org/2000/svg">
<path d="M8.93344 11.6133H7.2601C6.16677 11.6133 5.2801 10.6933 5.2801 9.56001C5.2801 9.28667 5.50677 9.06001 5.7801 9.06001C6.05344 9.06001 6.2801 9.28667 6.2801 9.56001C6.2801 10.14 6.7201 10.6133 7.2601 10.6133H8.93344C9.36677 10.6133 9.72677 10.2267 9.72677 9.76001C9.72677 9.18001 9.5201 9.06667 9.1801 8.94667L6.49344 8.00001C5.97344 7.82001 5.27344 7.43334 5.27344 6.24001C5.27344 5.21334 6.0801 4.38667 7.06677 4.38667H8.7401C9.83344 4.38667 10.7201 5.30667 10.7201 6.44001C10.7201 6.71334 10.4934 6.94001 10.2201 6.94001C9.94677 6.94001 9.7201 6.71334 9.7201 6.44001C9.7201 5.86001 9.2801 5.38667 8.7401 5.38667H7.06677C6.63344 5.38667 6.27344 5.77334 6.27344 6.24001C6.27344 6.82001 6.4801 6.93334 6.8201 7.05334L9.50677 8.00001C10.0268 8.18001 10.7268 8.56667 10.7268 9.76001C10.7201 10.78 9.9201 11.6133 8.93344 11.6133Z" fill="#4F5B67"/>
<path d="M8 12.5C7.72667 12.5 7.5 12.2733 7.5 12V4C7.5 3.72667 7.72667 3.5 8 3.5C8.27333 3.5 8.5 3.72667 8.5 4V12C8.5 12.2733 8.27333 12.5 8 12.5Z" fill="#4F5B67"/>
<path d="M7.99992 15.1667C4.04659 15.1667 0.833252 11.9533 0.833252 8C0.833252 4.04666 4.04659 0.833328 7.99992 0.833328C11.9533 0.833328 15.1666 4.04666 15.1666 8C15.1666 11.9533 11.9533 15.1667 7.99992 15.1667ZM7.99992 1.83333C4.59992 1.83333 1.83325 4.6 1.83325 8C1.83325 11.4 4.59992 14.1667 7.99992 14.1667C11.3999 14.1667 14.1666 11.4 14.1666 8C14.1666 4.6 11.3999 1.83333 7.99992 1.83333Z" fill="#4F5B67"/>
</svg>
